<mxfile host="app.diagrams.net" modified="2023-03-27T11:12:39.930Z" agent="Mozilla/5.0 (Windows NT 10.0; Win64; x64; rv:109.0) Gecko/20100101 Firefox/111.0" etag="_YL9SkT_QYY_h5uF--lu" version="21.1.1" type="device" pages="8">
  <diagram id="S1IXYuOUgoIfzHwrSMmN" name="JSP_Implicit_Objects">
    <mxGraphModel dx="848" dy="414" grid="1" gridSize="10" guides="1" tooltips="1" connect="1" arrows="1" fold="1" page="1" pageScale="1" pageWidth="850" pageHeight="1100" math="0" shadow="0">
      <root>
        <mxCell id="0" />
        <mxCell id="1" parent="0" />
        <mxCell id="8bW8XK9etxhAh8Mgaurj-1" value="" style="edgeStyle=orthogonalEdgeStyle;rounded=0;orthogonalLoop=1;jettySize=auto;html=1;" parent="1" source="8bW8XK9etxhAh8Mgaurj-12" target="8bW8XK9etxhAh8Mgaurj-3" edge="1">
          <mxGeometry relative="1" as="geometry" />
        </mxCell>
        <mxCell id="8bW8XK9etxhAh8Mgaurj-2" value="&lt;div&gt;&lt;b&gt;&lt;font color=&quot;#3333ff&quot;&gt;&lt;u&gt;Show usage of response object&lt;/u&gt;&lt;/font&gt;&lt;br&gt;&lt;/b&gt;&lt;/div&gt;&lt;div&gt;&lt;b&gt;&lt;br&gt;&lt;/b&gt;&lt;/div&gt;&lt;div&gt;&lt;b&gt;&lt;font color=&quot;#3333ff&quot;&gt;&lt;u&gt;Show usage of ERROR object&lt;/u&gt;&lt;/font&gt;&lt;/b&gt;&lt;/div&gt;" style="rounded=0;whiteSpace=wrap;html=1;" parent="1" vertex="1">
          <mxGeometry x="70" y="120" width="190" height="110" as="geometry" />
        </mxCell>
        <mxCell id="8bW8XK9etxhAh8Mgaurj-3" value="" style="rounded=0;whiteSpace=wrap;html=1;fillColor=#f8cecc;strokeColor=#b85450;" parent="1" vertex="1">
          <mxGeometry x="590" y="135" width="140" height="80" as="geometry" />
        </mxCell>
        <UserObject label="error.jsp" link="login.jsp" id="8bW8XK9etxhAh8Mgaurj-4">
          <mxCell style="text;whiteSpace=wrap;html=1;" parent="1" vertex="1">
            <mxGeometry x="620" y="90" width="80" height="40" as="geometry" />
          </mxCell>
        </UserObject>
        <UserObject label="implicit-objects-demo.jsp" link="index.jsp" id="8bW8XK9etxhAh8Mgaurj-5">
          <mxCell style="text;whiteSpace=wrap;html=1;" parent="1" vertex="1">
            <mxGeometry x="90" y="95" width="180" height="40" as="geometry" />
          </mxCell>
        </UserObject>
        <UserObject label="response-redirect.jsp" link="response-redirect.jsp" id="8bW8XK9etxhAh8Mgaurj-7">
          <mxCell style="text;whiteSpace=wrap;html=1;" parent="1" vertex="1">
            <mxGeometry x="450" y="380" width="150" height="40" as="geometry" />
          </mxCell>
        </UserObject>
        <mxCell id="8bW8XK9etxhAh8Mgaurj-8" value="" style="rounded=0;whiteSpace=wrap;html=1;fillColor=#d5e8d4;strokeColor=#82b366;" parent="1" vertex="1">
          <mxGeometry x="480" y="260" width="160" height="100" as="geometry" />
        </mxCell>
        <mxCell id="8bW8XK9etxhAh8Mgaurj-10" value="" style="edgeStyle=orthogonalEdgeStyle;rounded=0;orthogonalLoop=1;jettySize=auto;html=1;entryX=-0.019;entryY=0.66;entryDx=0;entryDy=0;entryPerimeter=0;" parent="1" source="8bW8XK9etxhAh8Mgaurj-2" target="8bW8XK9etxhAh8Mgaurj-8" edge="1">
          <mxGeometry relative="1" as="geometry">
            <mxPoint x="171.20000000000005" y="368" as="targetPoint" />
            <mxPoint x="165" y="230" as="sourcePoint" />
            <Array as="points">
              <mxPoint x="165" y="350" />
              <mxPoint x="457" y="350" />
            </Array>
          </mxGeometry>
        </mxCell>
        <mxCell id="8bW8XK9etxhAh8Mgaurj-11" value="request.getParameter(&quot;office&quot;) !=null;" style="text;whiteSpace=wrap;html=1;fontStyle=1" parent="1" vertex="1">
          <mxGeometry x="180" y="320" width="230" height="40" as="geometry" />
        </mxCell>
        <mxCell id="8bW8XK9etxhAh8Mgaurj-13" value="" style="edgeStyle=orthogonalEdgeStyle;rounded=0;orthogonalLoop=1;jettySize=auto;html=1;" parent="1" source="8bW8XK9etxhAh8Mgaurj-2" target="8bW8XK9etxhAh8Mgaurj-12" edge="1">
          <mxGeometry relative="1" as="geometry">
            <mxPoint x="260" y="175" as="sourcePoint" />
            <mxPoint x="590" y="175" as="targetPoint" />
          </mxGeometry>
        </mxCell>
        <mxCell id="8bW8XK9etxhAh8Mgaurj-12" value="request.getParameter(&quot;error&quot;) !=null;" style="text;whiteSpace=wrap;html=1;fontStyle=1" parent="1" vertex="1">
          <mxGeometry x="310" y="150" width="230" height="40" as="geometry" />
        </mxCell>
      </root>
    </mxGraphModel>
  </diagram>
  <diagram name="3 JSP_Directives" id="0Cvwu1ot6GPK-hMiylME">
    <mxGraphModel dx="703" dy="343" grid="1" gridSize="10" guides="1" tooltips="1" connect="1" arrows="1" fold="1" page="1" pageScale="1" pageWidth="850" pageHeight="1100" math="0" shadow="0">
      <root>
        <mxCell id="kLA6ZZa198viaZ5h3mp8-0" />
        <mxCell id="kLA6ZZa198viaZ5h3mp8-1" parent="kLA6ZZa198viaZ5h3mp8-0" />
        <mxCell id="kLA6ZZa198viaZ5h3mp8-2" value="" style="edgeStyle=orthogonalEdgeStyle;rounded=0;orthogonalLoop=1;jettySize=auto;html=1;" parent="kLA6ZZa198viaZ5h3mp8-1" edge="1">
          <mxGeometry relative="1" as="geometry">
            <mxPoint x="540" y="170" as="sourcePoint" />
          </mxGeometry>
        </mxCell>
        <mxCell id="kLA6ZZa198viaZ5h3mp8-3" value="&lt;div&gt;&lt;b&gt;This is content from the main file .&lt;/b&gt;&lt;/div&gt;&lt;div&gt;&lt;b&gt;&lt;br&gt;&lt;/b&gt;&lt;/div&gt;&lt;div&gt;&lt;b&gt;&lt;br&gt;&lt;/b&gt;&lt;/div&gt;&lt;div&gt;&lt;b&gt;&lt;br&gt;&lt;/b&gt;&lt;/div&gt;&lt;div&gt;&lt;b&gt;&lt;br&gt;&lt;/b&gt;&lt;/div&gt;&lt;div&gt;&lt;b&gt;&lt;br&gt;&lt;/b&gt;&lt;/div&gt;&lt;div&gt;&lt;b&gt;&lt;br&gt;&lt;/b&gt;&lt;/div&gt;&lt;div&gt;&lt;b&gt;Currency = 500&lt;/b&gt;&lt;/div&gt;&lt;div&gt;&lt;b&gt;&lt;br&gt;&lt;/b&gt;&lt;/div&gt;&lt;div&gt;&lt;b&gt;&amp;nbsp;Current date and time is ABC&lt;br&gt;&lt;/b&gt;&lt;/div&gt;" style="rounded=0;whiteSpace=wrap;html=1;fillColor=#dae8fc;strokeColor=#6c8ebf;" parent="kLA6ZZa198viaZ5h3mp8-1" vertex="1">
          <mxGeometry x="70" y="120" width="420" height="280" as="geometry" />
        </mxCell>
        <UserObject label="index.jsp" link="index.jsp" id="kLA6ZZa198viaZ5h3mp8-6">
          <mxCell style="text;whiteSpace=wrap;html=1;fontStyle=1;fillColor=#f5f5f5;fontColor=#333333;strokeColor=#666666;" parent="kLA6ZZa198viaZ5h3mp8-1" vertex="1">
            <mxGeometry x="240" y="70" width="80" height="40" as="geometry" />
          </mxCell>
        </UserObject>
        <mxCell id="zTZ8oBM1fa2h-Xuzs_rB-0" value="This is content from included file ." style="rounded=0;whiteSpace=wrap;html=1;fillColor=#fff2cc;strokeColor=#d6b656;fontStyle=1" parent="kLA6ZZa198viaZ5h3mp8-1" vertex="1">
          <mxGeometry x="120" y="220" width="320" height="50" as="geometry" />
        </mxCell>
        <mxCell id="zTZ8oBM1fa2h-Xuzs_rB-1" value="" style="curved=1;endArrow=classic;html=1;rounded=0;exitX=1;exitY=0.5;exitDx=0;exitDy=0;" parent="kLA6ZZa198viaZ5h3mp8-1" source="zTZ8oBM1fa2h-Xuzs_rB-0" edge="1">
          <mxGeometry width="50" height="50" relative="1" as="geometry">
            <mxPoint x="400" y="370" as="sourcePoint" />
            <mxPoint x="640" y="230" as="targetPoint" />
            <Array as="points">
              <mxPoint x="620" y="160" />
              <mxPoint x="400" y="320" />
            </Array>
          </mxGeometry>
        </mxCell>
        <UserObject label="included.jsp" link="included.jsp" id="zTZ8oBM1fa2h-Xuzs_rB-2">
          <mxCell style="text;whiteSpace=wrap;html=1;fillColor=#f5f5f5;strokeColor=#666666;fontColor=#333333;fontStyle=1;" parent="kLA6ZZa198viaZ5h3mp8-1" vertex="1">
            <mxGeometry x="600" y="180" width="100" height="40" as="geometry" />
          </mxCell>
        </UserObject>
      </root>
    </mxGraphModel>
  </diagram>
  <diagram name="4 JSP_Action_Tags" id="fjVRzLEaly_mKxchR8GY">
    <mxGraphModel dx="1306" dy="666" grid="1" gridSize="10" guides="1" tooltips="1" connect="1" arrows="1" fold="1" page="1" pageScale="1" pageWidth="850" pageHeight="1100" math="0" shadow="0">
      <root>
        <mxCell id="wwOu1WOydD4P1VVaqTv5-0" />
        <mxCell id="wwOu1WOydD4P1VVaqTv5-1" parent="wwOu1WOydD4P1VVaqTv5-0" />
        <mxCell id="wwOu1WOydD4P1VVaqTv5-2" value="" style="edgeStyle=orthogonalEdgeStyle;rounded=0;orthogonalLoop=1;jettySize=auto;html=1;" edge="1" parent="wwOu1WOydD4P1VVaqTv5-1">
          <mxGeometry relative="1" as="geometry">
            <mxPoint x="540" y="170" as="sourcePoint" />
          </mxGeometry>
        </mxCell>
        <mxCell id="wwOu1WOydD4P1VVaqTv5-3" value="&lt;div&gt;&lt;h3&gt;&lt;font color=&quot;#3333ff&quot;&gt;&lt;b&gt;&lt;u&gt;Access bean properties from another page&lt;/u&gt;&lt;/b&gt;&lt;/font&gt;&lt;/h3&gt;&lt;/div&gt;&lt;div&gt;&lt;b&gt;&lt;br&gt;&lt;/b&gt;&lt;/div&gt;&lt;div&gt;&lt;b&gt;&lt;br&gt;&lt;/b&gt;&lt;/div&gt;&lt;div&gt;&lt;b&gt;&lt;br&gt;&lt;/b&gt;&lt;/div&gt;&lt;div&gt;&lt;b&gt;&lt;br&gt;&lt;/b&gt;&lt;/div&gt;&lt;div&gt;&lt;b&gt;&lt;br&gt;&lt;/b&gt;&lt;/div&gt;&lt;div&gt;&lt;b&gt;&lt;br&gt;&lt;/b&gt;&lt;/div&gt;&lt;div&gt;&lt;h3&gt;&lt;u&gt;&lt;b&gt;&lt;font color=&quot;#3333ff&quot;&gt;Use Forward action to go to Google&lt;/font&gt;&lt;/b&gt;&lt;/u&gt;&lt;/h3&gt;&lt;/div&gt;&lt;div&gt;&lt;b&gt;&lt;br&gt;&lt;/b&gt;&lt;/div&gt;&lt;div&gt;&lt;b&gt;&lt;br&gt;&lt;/b&gt;&lt;/div&gt;" style="rounded=0;whiteSpace=wrap;html=1;fillColor=#dae8fc;strokeColor=#6c8ebf;" vertex="1" parent="wwOu1WOydD4P1VVaqTv5-1">
          <mxGeometry x="70" y="120" width="300" height="280" as="geometry" />
        </mxCell>
        <UserObject label="index.jsp" link="index.jsp" id="wwOu1WOydD4P1VVaqTv5-4">
          <mxCell style="text;whiteSpace=wrap;html=1;fontStyle=1;fillColor=#f5f5f5;fontColor=#333333;strokeColor=#666666;" vertex="1" parent="wwOu1WOydD4P1VVaqTv5-1">
            <mxGeometry x="180" y="80" width="80" height="40" as="geometry" />
          </mxCell>
        </UserObject>
        <mxCell id="wwOu1WOydD4P1VVaqTv5-5" value="This page came from forward.jsp by using jsp:forward action tag" style="rounded=0;whiteSpace=wrap;html=1;fillColor=#fff2cc;strokeColor=#d6b656;fontStyle=1" vertex="1" parent="wwOu1WOydD4P1VVaqTv5-1">
          <mxGeometry x="640" y="420" width="220" height="100" as="geometry" />
        </mxCell>
        <UserObject label="&amp;nbsp;forwarded.jsp" link="included.jsp" id="wwOu1WOydD4P1VVaqTv5-7">
          <mxCell style="text;whiteSpace=wrap;html=1;fillColor=#f5f5f5;strokeColor=#666666;fontColor=#333333;fontStyle=1;" vertex="1" parent="wwOu1WOydD4P1VVaqTv5-1">
            <mxGeometry x="700" y="370" width="100" height="40" as="geometry" />
          </mxCell>
        </UserObject>
        <mxCell id="86boNU4BFV4onUr58Cy6-1" style="edgeStyle=orthogonalEdgeStyle;rounded=0;orthogonalLoop=1;jettySize=auto;html=1;entryX=0;entryY=0.5;entryDx=0;entryDy=0;" edge="1" parent="wwOu1WOydD4P1VVaqTv5-1" source="86boNU4BFV4onUr58Cy6-0" target="wwOu1WOydD4P1VVaqTv5-5">
          <mxGeometry relative="1" as="geometry" />
        </mxCell>
        <UserObject label="&amp;nbsp;forward.jsp" link="included.jsp" id="86boNU4BFV4onUr58Cy6-0">
          <mxCell style="text;whiteSpace=wrap;html=1;fillColor=#f5f5f5;strokeColor=#666666;fontColor=#333333;fontStyle=1;" vertex="1" parent="wwOu1WOydD4P1VVaqTv5-1">
            <mxGeometry x="450" y="350" width="100" height="40" as="geometry" />
          </mxCell>
        </UserObject>
        <mxCell id="86boNU4BFV4onUr58Cy6-2" value="" style="endArrow=classic;html=1;rounded=0;" edge="1" parent="wwOu1WOydD4P1VVaqTv5-1">
          <mxGeometry width="50" height="50" relative="1" as="geometry">
            <mxPoint x="380" y="330" as="sourcePoint" />
            <mxPoint x="440" y="370" as="targetPoint" />
          </mxGeometry>
        </mxCell>
        <mxCell id="86boNU4BFV4onUr58Cy6-3" value="" style="endArrow=classic;html=1;rounded=0;entryX=0;entryY=0.5;entryDx=0;entryDy=0;" edge="1" parent="wwOu1WOydD4P1VVaqTv5-1" target="86boNU4BFV4onUr58Cy6-5">
          <mxGeometry width="50" height="50" relative="1" as="geometry">
            <mxPoint x="380" y="180" as="sourcePoint" />
            <mxPoint x="460" y="150" as="targetPoint" />
          </mxGeometry>
        </mxCell>
        <UserObject label="&amp;nbsp;showbean.jsp" link="included.jsp" id="86boNU4BFV4onUr58Cy6-4">
          <mxCell style="text;whiteSpace=wrap;html=1;fillColor=#f5f5f5;strokeColor=#666666;fontColor=#333333;fontStyle=1;" vertex="1" parent="wwOu1WOydD4P1VVaqTv5-1">
            <mxGeometry x="580" y="85" width="100" height="30" as="geometry" />
          </mxCell>
        </UserObject>
        <mxCell id="86boNU4BFV4onUr58Cy6-5" value="&lt;div&gt;PRODUCT ID&lt;/div&gt;&lt;div&gt;PRODUCT NAME&lt;/div&gt;&lt;div&gt;PRODUCT PRICE&lt;br&gt;&lt;/div&gt;" style="rounded=0;whiteSpace=wrap;html=1;fillColor=#d5e8d4;strokeColor=#82b366;fontStyle=1" vertex="1" parent="wwOu1WOydD4P1VVaqTv5-1">
          <mxGeometry x="520" y="120" width="220" height="100" as="geometry" />
        </mxCell>
      </root>
    </mxGraphModel>
  </diagram>
  <diagram name="SESSION DEMO" id="uDzLv1yrg304Sib4ugnX">
    <mxGraphModel dx="1306" dy="666" grid="1" gridSize="10" guides="1" tooltips="1" connect="1" arrows="1" fold="1" page="1" pageScale="1" pageWidth="850" pageHeight="1100" math="0" shadow="0">
      <root>
        <mxCell id="0" />
        <mxCell id="1" parent="0" />
        <mxCell id="Iw6_gRQOuuMMKlFoTohi-3" value="" style="edgeStyle=orthogonalEdgeStyle;rounded=0;orthogonalLoop=1;jettySize=auto;html=1;" edge="1" parent="1" source="Iw6_gRQOuuMMKlFoTohi-1" target="Iw6_gRQOuuMMKlFoTohi-2">
          <mxGeometry relative="1" as="geometry" />
        </mxCell>
        <mxCell id="Iw6_gRQOuuMMKlFoTohi-1" value="" style="rounded=0;whiteSpace=wrap;html=1;" vertex="1" parent="1">
          <mxGeometry x="70" y="120" width="140" height="90" as="geometry" />
        </mxCell>
        <mxCell id="Iw6_gRQOuuMMKlFoTohi-6" value="" style="edgeStyle=orthogonalEdgeStyle;rounded=0;orthogonalLoop=1;jettySize=auto;html=1;" edge="1" parent="1" source="Iw6_gRQOuuMMKlFoTohi-2" target="Iw6_gRQOuuMMKlFoTohi-5">
          <mxGeometry relative="1" as="geometry" />
        </mxCell>
        <mxCell id="Iw6_gRQOuuMMKlFoTohi-2" value="" style="rounded=0;whiteSpace=wrap;html=1;" vertex="1" parent="1">
          <mxGeometry x="290" y="120" width="140" height="80" as="geometry" />
        </mxCell>
        <UserObject label="login.jsp" link="login.jsp" id="Iw6_gRQOuuMMKlFoTohi-4">
          <mxCell style="text;whiteSpace=wrap;html=1;" vertex="1" parent="1">
            <mxGeometry x="330" y="200" width="80" height="40" as="geometry" />
          </mxCell>
        </UserObject>
        <mxCell id="Iw6_gRQOuuMMKlFoTohi-8" value="" style="edgeStyle=orthogonalEdgeStyle;rounded=0;orthogonalLoop=1;jettySize=auto;html=1;" edge="1" parent="1" source="Iw6_gRQOuuMMKlFoTohi-5" target="Iw6_gRQOuuMMKlFoTohi-7">
          <mxGeometry relative="1" as="geometry" />
        </mxCell>
        <mxCell id="Iw6_gRQOuuMMKlFoTohi-5" value="&lt;div&gt;Hello &amp;lt;name&amp;gt;&lt;/div&gt;&lt;div&gt;&lt;br&gt;&lt;/div&gt;&lt;div&gt;&lt;font color=&quot;#3333ff&quot;&gt;&lt;b&gt;LOGOUT&lt;/b&gt;&lt;/font&gt;&lt;br&gt;&lt;/div&gt;" style="rounded=0;whiteSpace=wrap;html=1;" vertex="1" parent="1">
          <mxGeometry x="510" y="120" width="140" height="80" as="geometry" />
        </mxCell>
        <mxCell id="Iw6_gRQOuuMMKlFoTohi-9" style="edgeStyle=orthogonalEdgeStyle;rounded=0;orthogonalLoop=1;jettySize=auto;html=1;dashed=1;dashPattern=12 12;" edge="1" parent="1" source="Iw6_gRQOuuMMKlFoTohi-7">
          <mxGeometry relative="1" as="geometry">
            <mxPoint x="130" y="210" as="targetPoint" />
          </mxGeometry>
        </mxCell>
        <mxCell id="Iw6_gRQOuuMMKlFoTohi-7" value="&lt;div&gt;You have logged out!&lt;br&gt;&lt;/div&gt;&lt;div&gt;&lt;br&gt;&lt;/div&gt;&lt;div&gt;&lt;font color=&quot;#3333ff&quot;&gt;&lt;b&gt;LOGIN AGAIN&lt;/b&gt;&lt;/font&gt;&lt;br&gt;&lt;/div&gt;" style="rounded=0;whiteSpace=wrap;html=1;" vertex="1" parent="1">
          <mxGeometry x="510" y="280" width="140" height="80" as="geometry" />
        </mxCell>
        <UserObject label="dashboard.jsp" link="dashboard.jsp" id="Iw6_gRQOuuMMKlFoTohi-10">
          <mxCell style="text;whiteSpace=wrap;html=1;" vertex="1" parent="1">
            <mxGeometry x="530" y="90" width="110" height="40" as="geometry" />
          </mxCell>
        </UserObject>
        <UserObject label="index.jsp" link="index.jsp" id="Iw6_gRQOuuMMKlFoTohi-12">
          <mxCell style="text;whiteSpace=wrap;html=1;" vertex="1" parent="1">
            <mxGeometry x="110" y="80" width="80" height="40" as="geometry" />
          </mxCell>
        </UserObject>
        <mxCell id="Iw6_gRQOuuMMKlFoTohi-13" value="" style="rounded=0;whiteSpace=wrap;html=1;fillColor=#f5f5f5;fontColor=#333333;strokeColor=#666666;" vertex="1" parent="1">
          <mxGeometry x="110" y="130" width="60" height="20" as="geometry" />
        </mxCell>
        <mxCell id="Iw6_gRQOuuMMKlFoTohi-14" value="" style="rounded=0;whiteSpace=wrap;html=1;fillColor=#f5f5f5;fontColor=#333333;strokeColor=#666666;" vertex="1" parent="1">
          <mxGeometry x="110" y="156" width="60" height="20" as="geometry" />
        </mxCell>
        <mxCell id="Iw6_gRQOuuMMKlFoTohi-15" value="SUBMIT" style="rounded=1;whiteSpace=wrap;html=1;fillColor=#dae8fc;strokeColor=#6c8ebf;" vertex="1" parent="1">
          <mxGeometry x="109" y="180" width="60" height="20" as="geometry" />
        </mxCell>
        <mxCell id="Iw6_gRQOuuMMKlFoTohi-16" value="PROCESS THE LOGIN SUBMISSION" style="text;whiteSpace=wrap;html=1;" vertex="1" parent="1">
          <mxGeometry x="260" y="220" width="240" height="40" as="geometry" />
        </mxCell>
        <mxCell id="Iw6_gRQOuuMMKlFoTohi-17" value="" style="verticalLabelPosition=bottom;sketch=0;aspect=fixed;html=1;verticalAlign=top;strokeColor=none;align=center;outlineConnect=0;shape=mxgraph.citrix.process;" vertex="1" parent="1">
          <mxGeometry x="330" y="125" width="58.71" height="70" as="geometry" />
        </mxCell>
      </root>
    </mxGraphModel>
  </diagram>
  <diagram id="PdapNcqRGAYsfi2Hv9xJ" name="JSP Intro">
    <mxGraphModel dx="990" dy="601" grid="1" gridSize="10" guides="1" tooltips="1" connect="1" arrows="1" fold="1" page="1" pageScale="1" pageWidth="850" pageHeight="1100" math="0" shadow="0">
      <root>
        <mxCell id="0" />
        <mxCell id="1" parent="0" />
        <mxCell id="IIeq49-jNllMmwEU2iH2-1" value="Actor" style="shape=umlActor;verticalLabelPosition=bottom;verticalAlign=top;html=1;outlineConnect=0;" vertex="1" parent="1">
          <mxGeometry x="130" y="240" width="30" height="60" as="geometry" />
        </mxCell>
        <mxCell id="IIeq49-jNllMmwEU2iH2-3" style="edgeStyle=orthogonalEdgeStyle;rounded=0;orthogonalLoop=1;jettySize=auto;html=1;" edge="1" parent="1" source="IIeq49-jNllMmwEU2iH2-2" target="IIeq49-jNllMmwEU2iH2-4">
          <mxGeometry relative="1" as="geometry">
            <mxPoint x="490" y="150" as="targetPoint" />
          </mxGeometry>
        </mxCell>
        <mxCell id="IIeq49-jNllMmwEU2iH2-2" value="&lt;font style=&quot;font-size: 24px;&quot;&gt;BROWSER&lt;/font&gt;" style="shape=process;whiteSpace=wrap;html=1;backgroundOutline=1;" vertex="1" parent="1">
          <mxGeometry x="80" y="120" width="120" height="60" as="geometry" />
        </mxCell>
        <mxCell id="IIeq49-jNllMmwEU2iH2-4" value="" style="rounded=0;whiteSpace=wrap;html=1;" vertex="1" parent="1">
          <mxGeometry x="480" y="120" width="310" height="270" as="geometry" />
        </mxCell>
        <mxCell id="IIeq49-jNllMmwEU2iH2-5" value="&lt;font style=&quot;font-size: 24px;&quot;&gt;WEB SERVER / SERVLET CONTAINER&lt;br&gt;&lt;/font&gt;" style="text;html=1;align=center;verticalAlign=middle;resizable=0;points=[];autosize=1;strokeColor=none;fillColor=none;" vertex="1" parent="1">
          <mxGeometry x="430" y="60" width="460" height="40" as="geometry" />
        </mxCell>
        <mxCell id="IIeq49-jNllMmwEU2iH2-6" value="&lt;font style=&quot;font-size: 24px;&quot;&gt;SERVLET&lt;/font&gt;" style="ellipse;whiteSpace=wrap;html=1;" vertex="1" parent="1">
          <mxGeometry x="530" y="170" width="120" height="80" as="geometry" />
        </mxCell>
        <mxCell id="IIeq49-jNllMmwEU2iH2-7" value="&lt;font style=&quot;font-size: 24px;&quot;&gt;JSP&lt;/font&gt;" style="ellipse;whiteSpace=wrap;html=1;" vertex="1" parent="1">
          <mxGeometry x="320" y="360" width="120" height="80" as="geometry" />
        </mxCell>
        <mxCell id="IIeq49-jNllMmwEU2iH2-8" value="&lt;div&gt;&lt;font style=&quot;font-size: 24px;&quot;&gt;init&lt;/font&gt;&lt;/div&gt;&lt;div&gt;&lt;font style=&quot;font-size: 24px;&quot;&gt;&lt;br&gt;&lt;/font&gt;&lt;/div&gt;&lt;div&gt;&lt;font style=&quot;font-size: 24px;&quot;&gt;&lt;br&gt;&lt;/font&gt;&lt;/div&gt;&lt;div&gt;&lt;font style=&quot;font-size: 24px;&quot;&gt;doGet{&lt;/font&gt;&lt;/div&gt;&lt;div&gt;&lt;font style=&quot;font-size: 24px;&quot;&gt;.....&lt;/font&gt;&lt;/div&gt;&lt;div&gt;&lt;font style=&quot;font-size: 24px;&quot;&gt;&lt;br&gt;&lt;/font&gt;&lt;/div&gt;&lt;div&gt;&lt;font style=&quot;font-size: 24px;&quot;&gt;out.println(.&quot;&amp;lt;table border=1&amp;gt;&quot;)&lt;br&gt;&lt;/font&gt;&lt;/div&gt;&lt;div&gt;&lt;font style=&quot;font-size: 24px;&quot;&gt;&lt;br&gt;&lt;/font&gt;&lt;/div&gt;&lt;div&gt;&lt;font style=&quot;font-size: 24px;&quot;&gt;}&lt;br&gt;&lt;/font&gt;&lt;/div&gt;" style="rounded=0;whiteSpace=wrap;html=1;" vertex="1" parent="1">
          <mxGeometry x="300" y="600" width="380" height="330" as="geometry" />
        </mxCell>
      </root>
    </mxGraphModel>
  </diagram>
  <diagram id="b-FQKLryo2OKrCcfPA8W" name="Page-6">
    <mxGraphModel dx="990" dy="601" grid="1" gridSize="10" guides="1" tooltips="1" connect="1" arrows="1" fold="1" page="1" pageScale="1" pageWidth="850" pageHeight="1100" math="0" shadow="0">
      <root>
        <mxCell id="0" />
        <mxCell id="1" parent="0" />
        <mxCell id="_VddH3hnGHpKSiAjQhbd-1" value="&lt;div&gt;&lt;b&gt;&lt;font style=&quot;font-size: 24px;&quot; color=&quot;#ff0000&quot;&gt;PRODUCT LIST&lt;/font&gt;&lt;/b&gt;&lt;/div&gt;&lt;div&gt;&lt;font style=&quot;font-size: 24px;&quot;&gt;&lt;br&gt;&lt;/font&gt;&lt;/div&gt;&lt;div&gt;&lt;font style=&quot;font-size: 24px;&quot;&gt;&lt;br&gt;&lt;/font&gt;&lt;/div&gt;&lt;div&gt;&lt;font style=&quot;font-size: 24px;&quot;&gt;&lt;br&gt;&lt;/font&gt;&lt;/div&gt;&lt;div&gt;&lt;font style=&quot;font-size: 24px;&quot;&gt;&lt;br&gt;&lt;/font&gt;&lt;/div&gt;" style="rounded=0;whiteSpace=wrap;html=1;" vertex="1" parent="1">
          <mxGeometry x="320" y="70" width="350" height="350" as="geometry" />
        </mxCell>
        <mxCell id="_VddH3hnGHpKSiAjQhbd-2" value="Table" style="shape=table;startSize=30;container=1;collapsible=0;childLayout=tableLayout;strokeColor=default;fontSize=16;" vertex="1" parent="1">
          <mxGeometry x="405" y="250" width="180" height="150" as="geometry" />
        </mxCell>
        <mxCell id="_VddH3hnGHpKSiAjQhbd-3" value="" style="shape=tableRow;horizontal=0;startSize=0;swimlaneHead=0;swimlaneBody=0;strokeColor=inherit;top=0;left=0;bottom=0;right=0;collapsible=0;dropTarget=0;fillColor=none;points=[[0,0.5],[1,0.5]];portConstraint=eastwest;fontSize=16;" vertex="1" parent="_VddH3hnGHpKSiAjQhbd-2">
          <mxGeometry y="30" width="180" height="40" as="geometry" />
        </mxCell>
        <mxCell id="_VddH3hnGHpKSiAjQhbd-4" value="&lt;font color=&quot;#b266ff&quot;&gt;LAPTOP DELL&lt;br&gt;&lt;/font&gt;" style="shape=partialRectangle;html=1;whiteSpace=wrap;connectable=0;strokeColor=inherit;overflow=hidden;fillColor=none;top=0;left=0;bottom=0;right=0;pointerEvents=1;fontSize=16;" vertex="1" parent="_VddH3hnGHpKSiAjQhbd-3">
          <mxGeometry width="60" height="40" as="geometry">
            <mxRectangle width="60" height="40" as="alternateBounds" />
          </mxGeometry>
        </mxCell>
        <mxCell id="_VddH3hnGHpKSiAjQhbd-5" value="" style="shape=partialRectangle;html=1;whiteSpace=wrap;connectable=0;strokeColor=inherit;overflow=hidden;fillColor=none;top=0;left=0;bottom=0;right=0;pointerEvents=1;fontSize=16;" vertex="1" parent="_VddH3hnGHpKSiAjQhbd-3">
          <mxGeometry x="60" width="60" height="40" as="geometry">
            <mxRectangle width="60" height="40" as="alternateBounds" />
          </mxGeometry>
        </mxCell>
        <mxCell id="_VddH3hnGHpKSiAjQhbd-6" value="" style="shape=partialRectangle;html=1;whiteSpace=wrap;connectable=0;strokeColor=inherit;overflow=hidden;fillColor=none;top=0;left=0;bottom=0;right=0;pointerEvents=1;fontSize=16;" vertex="1" parent="_VddH3hnGHpKSiAjQhbd-3">
          <mxGeometry x="120" width="60" height="40" as="geometry">
            <mxRectangle width="60" height="40" as="alternateBounds" />
          </mxGeometry>
        </mxCell>
        <mxCell id="_VddH3hnGHpKSiAjQhbd-7" value="" style="shape=tableRow;horizontal=0;startSize=0;swimlaneHead=0;swimlaneBody=0;strokeColor=inherit;top=0;left=0;bottom=0;right=0;collapsible=0;dropTarget=0;fillColor=none;points=[[0,0.5],[1,0.5]];portConstraint=eastwest;fontSize=16;" vertex="1" parent="_VddH3hnGHpKSiAjQhbd-2">
          <mxGeometry y="70" width="180" height="40" as="geometry" />
        </mxCell>
        <mxCell id="_VddH3hnGHpKSiAjQhbd-8" value="HP LAPTOP" style="shape=partialRectangle;html=1;whiteSpace=wrap;connectable=0;strokeColor=inherit;overflow=hidden;fillColor=none;top=0;left=0;bottom=0;right=0;pointerEvents=1;fontSize=16;" vertex="1" parent="_VddH3hnGHpKSiAjQhbd-7">
          <mxGeometry width="60" height="40" as="geometry">
            <mxRectangle width="60" height="40" as="alternateBounds" />
          </mxGeometry>
        </mxCell>
        <mxCell id="_VddH3hnGHpKSiAjQhbd-9" value="" style="shape=partialRectangle;html=1;whiteSpace=wrap;connectable=0;strokeColor=inherit;overflow=hidden;fillColor=none;top=0;left=0;bottom=0;right=0;pointerEvents=1;fontSize=16;" vertex="1" parent="_VddH3hnGHpKSiAjQhbd-7">
          <mxGeometry x="60" width="60" height="40" as="geometry">
            <mxRectangle width="60" height="40" as="alternateBounds" />
          </mxGeometry>
        </mxCell>
        <mxCell id="_VddH3hnGHpKSiAjQhbd-10" value="" style="shape=partialRectangle;html=1;whiteSpace=wrap;connectable=0;strokeColor=inherit;overflow=hidden;fillColor=none;top=0;left=0;bottom=0;right=0;pointerEvents=1;fontSize=16;" vertex="1" parent="_VddH3hnGHpKSiAjQhbd-7">
          <mxGeometry x="120" width="60" height="40" as="geometry">
            <mxRectangle width="60" height="40" as="alternateBounds" />
          </mxGeometry>
        </mxCell>
        <mxCell id="_VddH3hnGHpKSiAjQhbd-11" value="" style="shape=tableRow;horizontal=0;startSize=0;swimlaneHead=0;swimlaneBody=0;strokeColor=inherit;top=0;left=0;bottom=0;right=0;collapsible=0;dropTarget=0;fillColor=none;points=[[0,0.5],[1,0.5]];portConstraint=eastwest;fontSize=16;" vertex="1" parent="_VddH3hnGHpKSiAjQhbd-2">
          <mxGeometry y="110" width="180" height="40" as="geometry" />
        </mxCell>
        <mxCell id="_VddH3hnGHpKSiAjQhbd-12" value="" style="shape=partialRectangle;html=1;whiteSpace=wrap;connectable=0;strokeColor=inherit;overflow=hidden;fillColor=none;top=0;left=0;bottom=0;right=0;pointerEvents=1;fontSize=16;" vertex="1" parent="_VddH3hnGHpKSiAjQhbd-11">
          <mxGeometry width="60" height="40" as="geometry">
            <mxRectangle width="60" height="40" as="alternateBounds" />
          </mxGeometry>
        </mxCell>
        <mxCell id="_VddH3hnGHpKSiAjQhbd-13" value="" style="shape=partialRectangle;html=1;whiteSpace=wrap;connectable=0;strokeColor=inherit;overflow=hidden;fillColor=none;top=0;left=0;bottom=0;right=0;pointerEvents=1;fontSize=16;" vertex="1" parent="_VddH3hnGHpKSiAjQhbd-11">
          <mxGeometry x="60" width="60" height="40" as="geometry">
            <mxRectangle width="60" height="40" as="alternateBounds" />
          </mxGeometry>
        </mxCell>
        <mxCell id="_VddH3hnGHpKSiAjQhbd-14" value="" style="shape=partialRectangle;html=1;whiteSpace=wrap;connectable=0;strokeColor=inherit;overflow=hidden;fillColor=none;top=0;left=0;bottom=0;right=0;pointerEvents=1;fontSize=16;" vertex="1" parent="_VddH3hnGHpKSiAjQhbd-11">
          <mxGeometry x="120" width="60" height="40" as="geometry">
            <mxRectangle width="60" height="40" as="alternateBounds" />
          </mxGeometry>
        </mxCell>
        <mxCell id="YfAVOO0kSKwLR0aFqmjR-1" value="&lt;font style=&quot;font-size: 24px;&quot;&gt;JAVA SERVER PAGES&lt;br&gt;&lt;/font&gt;" style="text;whiteSpace=wrap;html=1;" vertex="1" parent="1">
          <mxGeometry x="90" y="180" width="160" height="50" as="geometry" />
        </mxCell>
      </root>
    </mxGraphModel>
  </diagram>
  <diagram id="aVSRnDbiYk43qFy_kfm-" name="Page-7">
    <mxGraphModel dx="1533" dy="1514" grid="1" gridSize="10" guides="1" tooltips="1" connect="1" arrows="1" fold="1" page="1" pageScale="1" pageWidth="850" pageHeight="1100" math="0" shadow="0">
      <root>
        <mxCell id="0" />
        <mxCell id="1" parent="0" />
        <mxCell id="yGGk7pkls0CPhyfJ5N6u-1" value="&lt;font style=&quot;font-size: 24px;&quot;&gt;&amp;lt;%! int data=100; %&amp;gt;&lt;/font&gt;" style="text;html=1;align=center;verticalAlign=middle;resizable=0;points=[];autosize=1;strokeColor=none;fillColor=none;" vertex="1" parent="1">
          <mxGeometry x="-15" y="50" width="250" height="40" as="geometry" />
        </mxCell>
        <mxCell id="yGGk7pkls0CPhyfJ5N6u-2" value="&lt;div&gt;&lt;font style=&quot;font-size: 24px;&quot;&gt;Inside Servlet class file &lt;br&gt;&lt;/font&gt;&lt;/div&gt;&lt;div&gt;&lt;font style=&quot;font-size: 24px;&quot;&gt;&lt;br&gt;&lt;/font&gt;&lt;/div&gt;&lt;div&gt;&lt;font style=&quot;font-size: 24px;&quot;&gt;&lt;br&gt;&lt;/font&gt;&lt;/div&gt;&lt;div&gt;&lt;font style=&quot;font-size: 24px;&quot;&gt;&lt;br&gt;&lt;/font&gt;&lt;/div&gt;&lt;div&gt;&lt;b&gt;&lt;font size=&quot;3&quot;&gt;class hello_jsp {&lt;/font&gt;&lt;/b&gt;&lt;/div&gt;&lt;div&gt;&lt;br&gt;&lt;/div&gt;&lt;div&gt;&lt;br&gt;&lt;/div&gt;&lt;div&gt;&lt;br&gt;&lt;/div&gt;&lt;div&gt;&lt;font style=&quot;font-size: 24px;&quot;&gt;int data=100;&lt;/font&gt;&lt;/div&gt;&lt;div&gt;&lt;font style=&quot;font-size: 24px;&quot;&gt;&lt;br&gt;&lt;/font&gt;&lt;/div&gt;&lt;div&gt;&lt;font style=&quot;font-size: 24px;&quot;&gt;service(...){&lt;/font&gt;&lt;/div&gt;&lt;div&gt;&lt;font style=&quot;font-size: 24px;&quot;&gt;&lt;br&gt;&lt;/font&gt;&lt;/div&gt;&lt;font size=&quot;3&quot; color=&quot;#ff9999&quot;&gt;out.prtintn( &lt;font&gt;data &lt;/font&gt;)&lt;/font&gt;&lt;div&gt;&lt;font style=&quot;font-size: 24px;&quot;&gt;}&lt;br&gt;&lt;/font&gt;&lt;/div&gt;&lt;div&gt;&lt;font size=&quot;3&quot;&gt;&lt;br&gt;&lt;/font&gt;&lt;/div&gt;&lt;div&gt;&lt;font size=&quot;3&quot;&gt;&lt;br&gt;&lt;/font&gt;&lt;/div&gt;&lt;div&gt;&lt;font size=&quot;3&quot;&gt;&lt;br&gt;&lt;/font&gt;&lt;/div&gt;&lt;div&gt;&lt;font size=&quot;3&quot;&gt;&lt;br&gt;&lt;/font&gt;&lt;/div&gt;&lt;div&gt;&lt;font size=&quot;3&quot;&gt;&lt;br&gt;&lt;/font&gt;&lt;/div&gt;&lt;div&gt;&lt;font size=&quot;3&quot;&gt;&lt;br&gt;&lt;/font&gt;&lt;/div&gt;&lt;div&gt;&lt;font size=&quot;3&quot;&gt;}&lt;br&gt;&lt;/font&gt;&lt;/div&gt;" style="text;html=1;align=center;verticalAlign=middle;resizable=0;points=[];autosize=1;strokeColor=none;fillColor=none;" vertex="1" parent="1">
          <mxGeometry x="365" y="-75" width="270" height="490" as="geometry" />
        </mxCell>
        <mxCell id="yGGk7pkls0CPhyfJ5N6u-3" value="&lt;font style=&quot;font-size: 24px;&quot;&gt;&amp;lt;%= data %&amp;gt;&lt;/font&gt;" style="text;whiteSpace=wrap;html=1;" vertex="1" parent="1">
          <mxGeometry x="15" y="220" width="220" height="40" as="geometry" />
        </mxCell>
      </root>
    </mxGraphModel>
  </diagram>
  <diagram id="C2MkGNeLqDHpbPoFH3wG" name="Page-8">
    <mxGraphModel dx="990" dy="601" grid="1" gridSize="10" guides="1" tooltips="1" connect="1" arrows="1" fold="1" page="1" pageScale="1" pageWidth="850" pageHeight="1100" math="0" shadow="0">
      <root>
        <mxCell id="0" />
        <mxCell id="1" parent="0" />
        <mxCell id="Y2gNAQpu7cqroDO0FMB2-1" value="&lt;font style=&quot;font-size: 24px;&quot;&gt;&lt;span dir=&quot;ltr&quot; role=&quot;presentation&quot; style=&quot;left: 29.34%; top: 57.78%; font-family: sans-serif; transform: scaleX(0.69611);&quot;&gt;session&lt;/span&gt;&lt;/font&gt;" style="text;whiteSpace=wrap;html=1;fillColor=#d5e8d4;strokeColor=#82b366;" vertex="1" parent="1">
          <mxGeometry x="60" y="160" width="110" height="40" as="geometry" />
        </mxCell>
        <mxCell id="Y2gNAQpu7cqroDO0FMB2-2" value="&lt;font style=&quot;font-size: 24px;&quot;&gt;HTTPSession session = request.getSession()&lt;/font&gt;" style="text;html=1;align=center;verticalAlign=middle;resizable=0;points=[];autosize=1;strokeColor=#6c8ebf;fillColor=#dae8fc;" vertex="1" parent="1">
          <mxGeometry x="315" y="160" width="510" height="40" as="geometry" />
        </mxCell>
        <mxCell id="Y2gNAQpu7cqroDO0FMB2-4" value="&lt;font style=&quot;font-size: 24px;&quot;&gt;application&lt;/font&gt;" style="text;whiteSpace=wrap;html=1;fillColor=#d5e8d4;strokeColor=#82b366;" vertex="1" parent="1">
          <mxGeometry x="60" y="280" width="110" height="40" as="geometry" />
        </mxCell>
        <mxCell id="Y2gNAQpu7cqroDO0FMB2-5" value="&lt;font style=&quot;font-size: 24px;&quot;&gt;getServletContext().forward&lt;/font&gt;" style="text;html=1;align=center;verticalAlign=middle;resizable=0;points=[];autosize=1;strokeColor=#6c8ebf;fillColor=#dae8fc;" vertex="1" parent="1">
          <mxGeometry x="405" y="260" width="320" height="40" as="geometry" />
        </mxCell>
      </root>
    </mxGraphModel>
  </diagram>
</mxfile>
